<svg version="1.1" id="Layer_1" xmlns="http://www.w3.org/2000/svg" xmlns:xlink="http://www.w3.org/1999/xlink" x="0px" y="0px"
	 width="100%" viewBox="0 0 496 496" enable-background="new 0 0 496 496" xml:space="preserve">
<path fill="#000000" opacity="1.000000" stroke="none" 
	d="
M11.193087,139.122314 
	C12.751531,136.342804 15.233647,135.340881 17.719774,134.369705 
	C74.774475,112.081970 131.831177,89.799377 188.888718,67.518913 
	C206.877441,60.494469 224.898422,53.551392 242.844269,46.419170 
	C248.958237,43.989296 254.788162,44.337849 260.785065,46.705139 
	C307.707275,65.227821 354.656250,83.682648 401.586700,102.184517 
	C429.621521,113.236984 457.638580,124.334549 485.660797,135.419006 
	C487.617462,136.192993 489.936523,136.488342 490.741241,139.087570 
	C489.838623,141.350296 487.587708,141.856674 485.679871,142.635239 
	C479.053955,145.339172 472.353638,147.860016 465.707947,150.516342 
	C458.506805,153.394684 457.319916,155.176895 457.310516,162.810150 
	C457.302887,168.975464 457.634033,175.162354 457.225067,181.300369 
	C456.773132,188.083054 459.715668,192.159973 465.567902,195.160721 
	C476.371582,200.700287 481.168945,210.146454 479.300659,221.431656 
	C478.155243,228.350601 474.495972,233.858154 468.781708,237.772919 
	C464.916931,240.420593 463.597076,243.478409 465.015137,247.979614 
	C470.920105,266.722565 472.165924,286.136017 473.084198,305.584167 
	C473.448212,313.293335 471.083557,315.984650 463.381927,316.156708 
	C455.054626,316.342804 446.718658,316.282837 438.388794,316.166718 
	C431.974670,316.077301 429.850647,313.461487 430.438232,307.017426 
	C432.217133,287.506744 433.052734,267.884521 438.460968,248.849747 
	C439.810211,244.101013 438.515472,239.453354 434.386810,236.251617 
	C420.198944,225.249054 423.117828,201.653351 442.097809,194.773605 
	C445.339813,193.598465 446.777679,191.587860 446.708740,188.017792 
	C446.560822,180.357117 446.785889,172.689911 446.795807,165.025299 
	C446.803162,159.359268 445.462341,158.404404 440.199829,160.474625 
	C420.989502,168.031738 401.812439,175.673370 382.598572,183.221313 
	C378.708710,184.749390 377.493469,186.816849 379.616730,190.862625 
	C385.151245,201.408569 388.171936,212.805573 390.602264,224.414505 
	C391.623840,229.294464 390.136719,233.095810 386.639984,236.015945 
	C357.087280,260.695190 324.068024,278.351105 285.602814,284.182129 
	C234.317337,291.956512 187.604492,279.193024 144.358978,251.676254 
	C137.191772,247.115784 129.981308,242.623352 122.799438,238.085815 
	C111.857628,231.172714 110.392715,227.156265 114.771187,214.777542 
	C117.490219,207.090363 120.608963,199.545471 123.422997,191.890656 
	C125.378983,186.569901 124.664467,184.586044 119.384537,182.653091 
	C90.465057,172.065826 62.364922,159.392715 33.334408,149.063080 
	C25.809067,146.385406 17.857592,144.271210 11.193087,139.122314 
z"/>
<path fill="#000000" opacity="1.000000" stroke="none" 
	d="
M265.540161,297.582306 
	C293.520721,293.797577 319.302856,284.885101 343.663330,271.606720 
	C362.905334,261.118317 380.559052,248.346542 397.699463,234.790894 
	C402.139282,231.279602 406.988892,228.904633 412.926056,230.565155 
	C421.322235,232.913406 424.861908,241.694153 420.395538,249.197647 
	C419.018951,251.510330 417.198059,253.436157 415.132568,255.164062 
	C404.520050,264.042236 393.652496,272.561951 381.867126,279.872894 
	C375.047333,284.103485 374.926453,285.277924 380.020996,291.208405 
	C393.367279,306.744690 401.715393,324.606384 402.004761,345.147736 
	C402.349640,369.628265 392.679382,390.434143 373.995239,406.201477 
	C350.636169,425.913910 323.723724,431.920502 294.098938,423.559357 
	C285.528168,421.140381 279.217163,422.730133 273.513580,429.964050 
	C267.033752,438.182648 259.560547,445.628235 252.388000,453.287018 
	C247.313889,458.705200 244.728363,458.325073 239.657135,453.184418 
	C230.995911,444.404572 222.568954,435.441895 214.761551,425.887787 
	C210.693329,420.909424 205.435242,421.757935 200.078171,423.324554 
	C178.803711,429.546021 157.944763,428.540802 137.808029,419.042908 
	C100.215744,401.311829 81.158875,356.756165 94.730522,318.753693 
	C97.794815,310.173248 102.554733,302.595917 108.484489,295.723541 
	C109.246033,294.840942 110.071884,294.013947 110.838394,293.135406 
	C118.076645,284.839478 117.967194,282.959961 109.022652,276.729767 
	C99.530014,270.117798 90.978798,262.483765 83.380585,253.803299 
	C79.956596,249.891586 76.799500,245.578156 78.496483,239.883347 
	C81.041656,231.342194 90.289886,227.602417 98.117615,231.913605 
	C100.133720,233.024002 102.083939,234.461426 103.659111,236.131012 
	C113.083176,246.119965 124.163498,254.148697 135.099823,262.254700 
	C163.912125,283.610413 196.457672,295.011932 232.165588,298.081665 
	C243.229370,299.032806 254.115540,297.735962 265.540161,297.582306 
M132.535858,341.129395 
	C155.664368,341.064911 178.792953,341.020447 201.921341,340.925201 
	C210.021530,340.891846 211.230682,339.056335 207.552994,331.692963 
	C198.819046,314.206116 184.254318,305.461639 165.004608,305.495758 
	C145.777451,305.529816 131.213287,314.302277 122.460686,331.740234 
	C118.527138,339.577087 119.502411,340.981567 128.056854,341.114349 
	C129.221420,341.132416 130.386398,341.125671 132.535858,341.129395 
M361.112610,340.903839 
	C367.231995,340.116699 368.371033,338.080048 365.521088,332.211121 
	C356.773682,314.197601 341.996521,305.235962 322.285828,305.505798 
	C302.653503,305.774567 287.964355,314.872070 279.594940,333.096802 
	C276.399414,340.055145 277.030090,341.069794 284.742889,341.071289 
	C309.891632,341.076202 335.040405,340.979279 361.112610,340.903839 
M134.008057,388.509827 
	C147.757217,400.290771 163.066803,403.609192 180.437149,397.711670 
	C194.974228,392.776093 204.982712,383.639954 209.775543,368.882233 
	C210.967087,365.213226 209.852295,363.912476 206.295624,363.966980 
	C202.972961,364.017883 199.527618,364.650238 196.354385,363.985474 
	C190.655960,362.791748 186.874054,365.203827 183.150497,368.977234 
	C171.193726,381.093994 159.296570,381.007172 147.420853,368.493774 
	C143.859726,364.741425 139.769653,363.382446 134.991257,363.429077 
	C131.344360,363.464691 127.705711,364.072449 124.056152,364.179871 
	C120.370399,364.288300 119.935570,365.999603 121.024216,369.059753 
	C123.639275,376.410583 127.662003,382.800995 134.008057,388.509827 
M285.585815,381.906097 
	C300.709015,400.423065 320.739227,405.154633 343.757507,395.647491 
	C356.856110,390.237427 368.444336,375.118378 367.489594,364.429993 
	C362.589600,363.588104 357.586884,364.515320 352.657257,364.066498 
	C348.140137,363.655273 344.749969,365.080078 341.589600,368.379730 
	C329.347412,381.161407 317.593597,381.238220 305.080444,368.491028 
	C301.342010,364.682709 297.053101,363.375580 292.103638,363.445129 
	C288.788391,363.491699 285.482391,364.091370 282.165741,364.171051 
	C278.685425,364.254761 277.756744,365.751953 278.811798,368.944641 
	C280.287231,373.409363 282.461700,377.495239 285.585815,381.906097 
M239.812408,398.317657 
	C238.860001,399.475494 238.031906,400.771088 236.931274,401.764740 
	C233.946274,404.459412 234.268387,406.881622 236.745621,409.865143 
	C246.549713,421.672974 244.551239,420.798584 254.894699,410.641876 
	C255.842041,409.711639 256.660065,408.647064 257.512299,407.623322 
	C258.354095,406.612152 258.519684,405.535004 257.647675,404.450714 
	C254.133698,400.081390 250.880951,395.474152 246.664474,391.708313 
	C243.776276,393.346222 242.312714,395.868042 239.812408,398.317657 
z"/>
</svg>